<svg width="506" height="458" viewBox="0 0 506 458" fill="none" xmlns="http://www.w3.org/2000/svg">
<path d="M320.325 32C359.595 53.8586 386.163 95.7837 386.163 143.916C386.163 214.608 328.856 271.916 258.163 271.916C196.704 271.916 145.363 228.6 133 170.832C151.406 181.078 172.603 186.916 195.163 186.916C265.856 186.916 323.163 129.608 323.163 58.916C323.163 49.6828 322.183 40.6786 320.325 32Z" fill="url(#paint0_linear_18_61)"/>
<path d="M166.222 272.183C189.541 296.71 222.485 312 259 312C295.322 312 328.109 296.869 351.406 272.569L474 426H32L166.222 272.183Z" fill="url(#paint1_linear_18_61)"/>
<defs>
<linearGradient id="paint0_linear_18_61" x1="230.92" y1="-39.5591" x2="101.819" y2="96.9217" gradientUnits="userSpaceOnUse">
<stop stop-color="#E5C890"/>
<stop offset="1" stop-color="#F9E2AF"/>
</linearGradient>
<linearGradient id="paint1_linear_18_61" x1="71" y1="96.5" x2="105.977" y2="373.664" gradientUnits="userSpaceOnUse">
<stop stop-color="white"/>
<stop offset="1" stop-color="#9399B2"/>
</linearGradient>
</defs>
</svg>
